<svg width="36" height="36" fill="none" xmlns="http://www.w3.org/2000/svg"><g clip-path="url(#a)" fill="#fff"><path d="M9.531 17.578h8.042v-6.877a24.51 24.51 0 0 1-6.863-1.082 28.731 28.731 0 0 0-1.179 7.959Z"/><path d="M35.295 18a17.22 17.22 0 0 0-1.553-7.15c2.225-4.083 2.841-8.128 1.117-9.655-1.623-1.679-5.133-1.277-9.641 1.094a17.223 17.223 0 0 0-14.44 0C6.27-.08 2.76-.484 1.14 1.19-.573 2.903-.03 6.478 2.25 10.86a17.23 17.23 0 0 0 .026 14.338c-2.402 4.587-2.81 8.033-1.136 9.706 2.343 2.149 6.52.498 9.731-1.147a17.237 17.237 0 0 0 14.243.002c3.302 1.674 7.413 3.268 9.742 1.145 1.674-1.673 1.266-5.119-1.136-9.706A17.208 17.208 0 0 0 35.295 18ZM34.257 1.786c1.297 1.296.937 4.252-.979 8.12a17.43 17.43 0 0 0-7.12-7.153c3.785-1.878 6.85-2.258 8.1-.967ZM1.742 1.78C2.988.495 6.053.875 9.839 2.753a17.406 17.406 0 0 0-7.116 7.141C.864 6.157.378 3.147 1.742 1.78Zm-.003 32.527C.426 32.997.797 30.04 2.74 26.139a17.434 17.434 0 0 0 7.178 7.147c-3.772 1.89-6.81 2.393-8.18 1.02Zm8.496-1.806a16.525 16.525 0 0 1-8.026-9.888c.757.18 1.45.564 2.005 1.11C5.429 25 6.97 25.223 8.396 25.01c.78-.118 1.457-.178 2.216.298 1.06.664 1.831 2.1 1.587 3.113-.245 1.013-1.007 1.266-1.494 2.447a7.052 7.052 0 0 0-.47 1.634Zm17.348-14.08a66.53 66.53 0 0 1-2.388 2.737c-.734-.933-2.005-1.1-2.981-.897-1.392.287-2.22-.315-2.59-1.84H8.42a67.065 67.065 0 0 0 4.38 4.823 66.575 66.575 0 0 0 5.197 4.684 66.514 66.514 0 0 0 6.617-6.146c.18.23.33.482.45.75a68.76 68.76 0 0 1-6.383 5.94 47.287 47.287 0 0 0 6.48 4.337c-.324.157-.654.302-.989.437a48.195 48.195 0 0 1-6.179-4.223 48.567 48.567 0 0 1-6.18 4.219 16.297 16.297 0 0 1-.98-.434 47.275 47.275 0 0 0 6.478-4.336 68.82 68.82 0 0 1-5.108-4.631 68.883 68.883 0 0 1-4.887-5.42h-5.76a9.376 9.376 0 0 1 0-.843h5.093a47.17 47.17 0 0 1-3.89-5.774c.136-.335.283-.665.441-.99a47.463 47.463 0 0 0 4.541 6.764h.948a29.07 29.07 0 0 1 1.246-8.217 21.17 21.17 0 0 1-4.379-2.11c.188-.216.38-.427.577-.633A20.382 20.382 0 0 0 10.2 8.561c1.052-2.986 2.587-5.336 4.398-6.66a16.25 16.25 0 0 1 2.134-.298c-2.17.98-4.514 3.294-5.758 7.214a23.67 23.67 0 0 0 6.602 1.041v-8.3c.281-.013.563-.013.844 0v8.299c2.238-.037 4.46-.39 6.598-1.052-1.243-3.913-3.587-6.223-5.754-7.202.717.053 1.43.153 2.134.3 1.808 1.322 3.342 3.667 4.393 6.646a20.432 20.432 0 0 0 4.057-1.944c.198.206.39.417.577.632a21.229 21.229 0 0 1-4.367 2.11 29.07 29.07 0 0 1 1.25 8.231h.96a46.397 46.397 0 0 0 4.536-6.75c.153.317.296.64.428.966a47.566 47.566 0 0 1-3.893 5.784h5.101a16.458 16.458 0 0 1-5.867 13.014c-1.693-1.497-2.475-2.59-2.284-3.719.124-.872.151-1.756.082-2.635a6.177 6.177 0 0 0-.69-2.362 67.275 67.275 0 0 0 2.99-3.454h-1.088Zm6.674 15.886c-1.37 1.372-4.407.869-8.179-1.021a17.434 17.434 0 0 0 7.178-7.147c1.943 3.901 2.315 6.857 1.001 8.168Z"/><path d="M18.422 10.7v6.878h8.042a28.723 28.723 0 0 0-1.184-7.972 24.499 24.499 0 0 1-6.858 1.094Z"/></g><defs><clipPath id="a"><path fill="#fff" d="M0 0h36v36H0z"/></clipPath></defs></svg>