<svg width="36" height="36" fill="none" xmlns="http://www.w3.org/2000/svg"><path d="M32.063 1.125H3.936a2.813 2.813 0 0 0-2.812 2.813v28.125a2.812 2.812 0 0 0 2.813 2.812h28.125a2.812 2.812 0 0 0 2.812-2.813V3.939a2.812 2.812 0 0 0-2.813-2.813ZM25.313 4.5h5.625a.562.562 0 1 1 0 1.125h-5.625a.562.562 0 1 1 0-1.125Zm-14.625 0a.562.562 0 1 1 0 1.125.562.562 0 0 1 0-1.125Zm-2.813 0a.562.562 0 1 1 0 1.125.562.562 0 0 1 0-1.125Zm-2.813 0a.562.562 0 1 1 0 1.125.562.562 0 0 1 0-1.125ZM33.75 32.063a1.693 1.693 0 0 1-1.688 1.687H3.939a1.693 1.693 0 0 1-1.688-1.688V9h31.5v23.063Z" fill="#fff"/><path d="M7.875 31.5h3.375a1.693 1.693 0 0 0 1.688-1.688v-3.375a1.693 1.693 0 0 0-1.688-1.687h-1.125v-1.688h7.313v1.688h-1.125a1.693 1.693 0 0 0-1.688 1.688v3.375a1.693 1.693 0 0 0 1.688 1.687h3.375a1.693 1.693 0 0 0 1.687-1.688v-3.375a1.693 1.693 0 0 0-1.688-1.687h-1.125v-1.688h7.313v1.688H24.75a1.693 1.693 0 0 0-1.688 1.688v3.375A1.693 1.693 0 0 0 24.75 31.5h3.375a1.693 1.693 0 0 0 1.688-1.688v-3.375a1.693 1.693 0 0 0-1.688-1.687H27V22.5a.562.562 0 0 0-.563-.563h-7.875v-1.125h3.375a1.693 1.693 0 0 0 1.688-1.687v-6.75a1.693 1.693 0 0 0-1.688-1.688h-7.875a1.693 1.693 0 0 0-1.687 1.688v6.75a1.693 1.693 0 0 0 1.688 1.688h3.374v1.125H9.563A.563.563 0 0 0 9 22.5v2.25H7.875a1.693 1.693 0 0 0-1.688 1.688v3.375A1.693 1.693 0 0 0 7.875 31.5ZM27 27.562a.562.562 0 1 1 0 1.125h-1.125a.562.562 0 1 1 0-1.125H27Zm-9.563-14.625h3.375a.562.562 0 1 1 0 1.126h-3.375a.562.562 0 1 1 0-1.126Zm-2.25 0a.562.562 0 1 1 0 1.125.562.562 0 0 1 0-1.124Zm0 2.25h5.626a.562.562 0 1 1 0 1.126h-5.625a.562.562 0 1 1 0-1.125Zm0 3.376a.562.562 0 1 1 0-1.125h5.626a.562.562 0 1 1 0 1.125h-5.625Zm3.376 9a.562.562 0 1 1 0 1.125h-1.125a.562.562 0 1 1 0-1.125h1.125Zm-9.563 0h1.125a.562.562 0 1 1 0 1.125H9a.563.563 0 0 1 0-1.125Z" fill="#fff"/></svg>