<svg width="36" height="36" fill="none" xmlns="http://www.w3.org/2000/svg"><g clip-path="url(#a)" fill="#fff"><path d="M29.39 26.156h4.38a1.268 1.268 0 0 0 .924-.4l1.15-1.227a.422.422 0 1 0-.616-.577l-1.15 1.227a.422.422 0 0 1-.309.134h-4.378a.421.421 0 1 0 0 .843Zm4.38 7.313a.423.423 0 0 1 .31.133l1.15 1.227a.421.421 0 1 0 .615-.577l-1.15-1.227a1.27 1.27 0 0 0-.925-.4h-4.38a.421.421 0 1 0 0 .844h4.38Zm1.808-4.5h-6.187a.422.422 0 0 0 0 .843h6.187a.422.422 0 0 0 0-.843ZM1.306 25.756a1.27 1.27 0 0 0 .923.4h4.38a.422.422 0 1 0 0-.843H2.23a.424.424 0 0 1-.308-.134l-1.15-1.227a.422.422 0 0 0-.616.577l1.15 1.227Zm5.303 6.869H2.23a1.271 1.271 0 0 0-.923.4l-1.15 1.227a.422.422 0 0 0 .616.577l1.15-1.227a.423.423 0 0 1 .307-.133h4.38a.422.422 0 1 0 0-.844ZM.422 29.812h6.187a.422.422 0 0 0 0-.843H.422a.422.422 0 0 0 0 .843Zm18.152 6.001c7.385-3.803 8.299-9.908 8.342-14.17a1.266 1.266 0 0 0-1.232-1.276c-2.876-.056-5.594-1.686-6.959-2.65a1.257 1.257 0 0 0-1.451 0c-1.365.965-4.083 2.592-6.96 2.65a1.266 1.266 0 0 0-1.23 1.277c.044 4.26.957 10.366 8.343 14.17a1.256 1.256 0 0 0 1.147 0Zm-2.186-6.35-2.025-2.028a1.22 1.22 0 0 1 1.724-1.726l1.187 1.186 3.297-3.124a1.224 1.224 0 0 1 1.744.028 1.221 1.221 0 0 1-.065 1.744l-4.16 3.942a1.22 1.22 0 0 1-1.702-.023Z"/><path d="M30.516 0H5.484A5.491 5.491 0 0 0 0 5.484v12.938a5.492 5.492 0 0 0 5.484 5.484h2.42a.424.424 0 0 0 .421-.458c-.05-.59-.079-1.195-.084-1.795a2.11 2.11 0 0 1 2.058-2.129c2.748-.056 5.454-1.763 6.489-2.497a2.14 2.14 0 0 1 2.427 0c1.035.734 3.738 2.441 6.486 2.497a2.11 2.11 0 0 1 2.058 2.127 23.785 23.785 0 0 1-.084 1.797.425.425 0 0 0 .422.458h2.419A5.491 5.491 0 0 0 36 18.422V5.484A5.492 5.492 0 0 0 30.516 0Zm3.214 21.766a4.807 4.807 0 0 1-.672.537L20.95 12.476a5.436 5.436 0 0 1-5.9.003L2.942 22.303a4.808 4.808 0 0 1-.672-.537l12.085-9.813L2.27 2.14a4.84 4.84 0 0 1 .672-.537l12.198 9.9a4.584 4.584 0 0 0 5.723-.003l12.195-9.897c.24.159.465.339.672.537l-12.085 9.813 12.085 9.813Z"/></g><defs><clipPath id="a"><path fill="#fff" d="M0 0h36v36H0z"/></clipPath></defs></svg>