<svg width="36" height="36" fill="none" xmlns="http://www.w3.org/2000/svg"><path d="M18 5.063C10.867 5.063 5.062 10.867 5.062 18c0 7.133 5.805 12.938 12.938 12.938 7.133 0 12.938-5.805 12.938-12.938 0-7.133-5.805-12.938-12.938-12.938Zm-5.063 17.859a.28.28 0 0 1-.28.281H9.843a.281.281 0 0 1-.281-.281v-4.078a.281.281 0 0 1 .28-.282h2.813a.281.281 0 0 1 .281.282v4.078Zm4.5 0a.28.28 0 0 1-.28.281h-2.813a.281.281 0 0 1-.281-.281v-9.14a.281.281 0 0 1 .28-.282h2.813a.281.281 0 0 1 .282.281v9.14Zm4.5 0a.28.28 0 0 1-.28.281h-2.813a.281.281 0 0 1-.282-.281V10.828a.28.28 0 0 1 .282-.281h2.812a.281.281 0 0 1 .282.281v12.094Zm4.5 0a.28.28 0 0 1-.28.281h-2.813a.281.281 0 0 1-.282-.281v-6.61a.281.281 0 0 1 .282-.28h2.812a.281.281 0 0 1 .282.28v6.61Z" fill="#fff"/><path d="M31.269 7.587a1.666 1.666 0 0 0-.053-1.775 1.688 1.688 0 1 0-1.403 2.625c.202 0 .403-.04.592-.113A15.725 15.725 0 0 1 33.75 18c0 8.685-7.065 15.75-15.75 15.75-2.554 0-5.07-.62-7.331-1.808a.563.563 0 1 0-.525.995A16.865 16.865 0 0 0 18 34.875c9.305 0 16.875-7.57 16.875-16.875A16.856 16.856 0 0 0 31.27 7.587ZM6.188 27.563c-.208 0-.414.04-.607.117A15.579 15.579 0 0 1 2.25 18C2.25 9.315 9.314 2.25 18 2.25a15.62 15.62 0 0 1 6.664 1.477.562.562 0 1 0 .477-1.02A16.734 16.734 0 0 0 18 1.126C8.695 1.125 1.125 8.695 1.125 18a16.694 16.694 0 0 0 3.603 10.419 1.67 1.67 0 0 0-.228.831 1.688 1.688 0 1 0 1.688-1.688Z" fill="#fff"/></svg>