<svg width="36" height="36" fill="none" xmlns="http://www.w3.org/2000/svg"><path d="M11.813 8.438a1.406 1.406 0 1 0 0-2.813 1.406 1.406 0 0 0 0 2.813Zm11.25-4.5a1.406 1.406 0 1 0 0-2.813 1.406 1.406 0 0 0 0 2.813Zm-21.375 0h.562V4.5a.563.563 0 1 0 1.125 0v-.563h.563a.563.563 0 1 0 0-1.124h-.563V2.25a.563.563 0 1 0-1.125 0v.563h-.563a.563.563 0 1 0 0 1.124Zm30.375 3.937h.562v.563a.563.563 0 0 0 1.125 0v-.563h.563a.562.562 0 1 0 0-1.125h-.563v-.563a.563.563 0 0 0-1.125 0v.563h-.563a.562.562 0 1 0 0 1.125Zm-2.25 5.625a.562.562 0 0 0-.563.563V18a.562.562 0 1 0 1.125 0v-3.938a.562.562 0 0 0-.563-.562Zm0 7.313a.562.562 0 1 0 0-1.125.562.562 0 0 0 0 1.125Z" fill="#fff"/><path d="M34.313 30.375h-1.688v-18a1.687 1.687 0 0 0-1.688-1.688H5.063a1.687 1.687 0 0 0-1.687 1.688v18H1.687a.563.563 0 0 0-.562.563 3.942 3.942 0 0 0 3.938 3.937h25.875a3.942 3.942 0 0 0 3.937-3.938.562.562 0 0 0-.563-.562Zm-12.938 2.25h-6.75c-.478 0-.894-.478-1.055-1.125h8.86c-.16.647-.577 1.125-1.055 1.125Zm10.125-2.25h-27v-18a.562.562 0 0 1 .563-.563h25.875a.562.562 0 0 1 .562.563v18Z" fill="#fff"/><path d="M29.813 28.125h-1.407v-3.938a.562.562 0 0 0-.562-.562H25.03a.563.563 0 0 0-.562.563v3.937H22.78v-6.188a.562.562 0 0 0-.562-.562h-2.813a.563.563 0 0 0-.562.563v6.187h-1.688v-9.563a.562.562 0 0 0-.562-.562H13.78a.563.563 0 0 0-.562.563v9.562H11.53v-13.5a.562.562 0 0 0-.562-.563H8.156a.563.563 0 0 0-.562.563v13.5H6.187a.563.563 0 0 0 0 1.125h23.625a.562.562 0 1 0 0-1.125ZM19.124 17.437a.56.56 0 0 0 .398-.164l.96-.96h5.954a.562.562 0 1 0 0-1.125H20.25a.56.56 0 0 0-.398.164l-1.125 1.125a.563.563 0 0 0 .398.96Zm3.938-3.375h3.375a.562.562 0 1 0 0-1.124h-3.375a.562.562 0 1 0 0 1.124Z" fill="#fff"/></svg>