<svg width="36" height="36" fill="none" xmlns="http://www.w3.org/2000/svg"><path d="M3.766 8.895a9.106 9.106 0 0 0 8.985 9.48 9.08 9.08 0 0 0 7.733-4.387l.915.014a1.94 1.94 0 0 0 1.357-.562l.84-.848 1.335 1.163a.742.742 0 0 0 .975.007l1.38-1.155.975 1.096a.75.75 0 0 0 1.058.06l3.075-2.716a1.884 1.884 0 0 0 .037-2.767l-2.415-2.272a3.375 3.375 0 0 0-2.257-.915l-7.148-.105a8.978 8.978 0 0 0-7.86-4.613 9.138 9.138 0 0 0-8.985 8.52Zm5.948 3.06a2.626 2.626 0 1 1 .076-5.25 2.626 2.626 0 0 1-.076 5.25Zm10.912-2.872h3.75a.375.375 0 1 1 0 .75h-3.75a.375.375 0 0 1 0-.75ZM.578 28.524l1.898 4.562A3.39 3.39 0 0 0 6.901 34.9l4.3-1.814-4.48-10.784-4.335 1.816a3.375 3.375 0 0 0-1.808 4.405Zm12.58 3.738a1.223 1.223 0 0 0 .735-1.232l.436-.186a3.01 3.01 0 0 1 1.604-.209c3.104.466 8.43-.61 11.175-2.254a68.806 68.806 0 0 0 7.65-5.36 2.4 2.4 0 0 0 .735-2.805 2.37 2.37 0 0 0-3.42-1.005c-.785.529-2.663 1.853-3.554 2.482a1.828 1.828 0 0 0-2.011-1.293c-.268.062-.525.144-.788.225-1.04.334-2.115.679-4.48-.225-4.5-1.725-8.976.49-9.141.575l-1.942.82a1.23 1.23 0 0 0-1.403-.347l-1.34.56 4.48 10.78 1.265-.526Zm-.745-10.6c.044-.021 4.374-2.157 8.558-.555 2.613 1 3.87.594 4.978.238.243-.079.48-.155.726-.211.7-.142 1.235.681 1.235 1.328 0 .82-1.39 1.692-1.896 1.917a8.23 8.23 0 0 1-3.47.252.375.375 0 0 0-.098.744 8.875 8.875 0 0 0 3.871-.31c.024-.011 2.286-1.059 2.339-2.55.637-.45 2.958-2.092 3.832-2.68a1.584 1.584 0 0 1 1.8 2.603 67.914 67.914 0 0 1-7.564 5.3c-2.577 1.544-7.768 2.595-10.679 2.155a3.79 3.79 0 0 0-2.005.261l-.375.158-3.169-7.84 1.917-.81Z" fill="#fff"/></svg>