<svg width="36" height="36" fill="none" xmlns="http://www.w3.org/2000/svg"><path d="M34.313 30.375h-1.688V12.937a2.812 2.812 0 0 0-2.813-2.812h-4.494c.176-.201.274-.459.276-.726V8.04a1.129 1.129 0 0 0-1.125-1.126h-.816a5.644 5.644 0 0 0-.382-.917l.579-.574a1.125 1.125 0 0 0 0-1.591l-.962-.962a1.125 1.125 0 0 0-1.592 0l-.573.58a5.643 5.643 0 0 0-.917-.383V2.25a1.128 1.128 0 0 0-1.125-1.125h-1.362a1.128 1.128 0 0 0-1.125 1.125v.816c-.316.1-.623.228-.916.382l-.574-.58a1.124 1.124 0 0 0-1.592 0l-.962.963a1.125 1.125 0 0 0 0 1.592l.58.573c-.155.294-.283.6-.383.917h-.816a1.129 1.129 0 0 0-1.125 1.125V9.4c.002.267.1.525.276.726H6.187a2.812 2.812 0 0 0-2.812 2.813v17.437H1.687a.563.563 0 0 0-.562.563v1.125a2.812 2.812 0 0 0 2.813 2.812h28.125a2.812 2.812 0 0 0 2.812-2.813v-1.124a.562.562 0 0 0-.563-.563ZM18 5.344a3.375 3.375 0 1 1 0 6.75 3.375 3.375 0 0 1 0-6.75ZM6.75 13.5h5.31a.82.82 0 0 0 .09.107l.962.962a1.125 1.125 0 0 0 1.592 0l.573-.58c.294.155.601.283.917.383v.816a1.128 1.128 0 0 0 1.125 1.124h1.362a1.128 1.128 0 0 0 1.125-1.125v-.815c.316-.1.623-.228.916-.383l.574.58a1.125 1.125 0 0 0 1.592 0l.962-.962a.82.82 0 0 0 .09-.107h5.31v14.625H6.75V13.5Zm27 18.563a1.693 1.693 0 0 1-1.688 1.687H3.939a1.693 1.693 0 0 1-1.688-1.688V31.5H13.58a2.25 2.25 0 0 0 2.171 1.688h4.5a2.25 2.25 0 0 0 2.171-1.688H33.75v.563Z" fill="#fff"/><path d="M8.438 21.375a.562.562 0 1 0 0-1.125.562.562 0 0 0 0 1.125Zm0-2.25A.563.563 0 0 0 9 18.562v-3.375a.562.562 0 1 0-1.125 0v3.376a.562.562 0 0 0 .563.562ZM27 16.875h-1.688c-.62 0-1.125.504-1.125 1.125v7.313c0 .62.504 1.125 1.125 1.125H27c.621 0 1.125-.504 1.125-1.125V18c0-.621-.504-1.125-1.125-1.125Zm-5.625 2.813h-.889l-2.036-2.082a.575.575 0 0 0-.405-.169H13.5a.562.562 0 1 0 0 1.125h4.309l1.277 1.305a1.111 1.111 0 0 0-.523.945v4.5a1.128 1.128 0 0 0 1.125 1.125h1.687a1.128 1.128 0 0 0 1.125-1.125v-4.5a1.128 1.128 0 0 0-1.125-1.125Z" fill="#fff"/><path d="M15.75 21.938h-1.688c-.62 0-1.124.503-1.124 1.125v2.25c0 .62.503 1.125 1.124 1.125h1.688c.621 0 1.125-.504 1.125-1.125v-2.25c0-.622-.504-1.125-1.125-1.125Zm-5.062 1.125h-2.25a.563.563 0 0 0 0 1.125h2.25a.562.562 0 1 0 0-1.125Zm5.062-2.25a.562.562 0 1 0 0-1.125H13.5a.562.562 0 1 0 0 1.125h2.25Zm-5.063 4.5h-2.25a.563.563 0 0 0 0 1.125h2.25a.562.562 0 1 0 0-1.125ZM18 10.969a2.25 2.25 0 1 0 0-4.5 2.25 2.25 0 0 0 0 4.5Z" fill="#fff"/></svg>