<svg width="36" height="36" fill="none" xmlns="http://www.w3.org/2000/svg"><g clip-path="url(#a)" fill="#fff"><path d="M18.628 0v16.421L34.02 10.7A16.421 16.421 0 0 0 18.628 0Zm-7.042 35.324c3.221.976 6.671.89 9.84-.246A9.474 9.474 0 0 1 31.89 19.402a15.488 15.488 0 0 0-.745-4.099L16.62 20.697l-5.034 14.627Z"/><path d="M24.311 25.263a.632.632 0 1 0 0-1.263.632.632 0 0 0 0 1.263Z"/><path d="m10.418 34.914 4.864-14.249L.604 17.217a15.79 15.79 0 0 0 9.815 17.697ZM.902 15.985l14.57 3.43V4.42A15.701 15.701 0 0 0 .901 15.985Zm26.57 3.594a8.21 8.21 0 0 0-8.21 8.21 8.21 8.21 0 1 0 8.21-8.21ZM22.42 24.63a1.895 1.895 0 1 1 3.789 0 1.895 1.895 0 0 1-3.79 0Zm1.711 7.396a.634.634 0 0 1-.897-.896l7.58-7.58a.634.634 0 1 1 .896.897l-7.579 7.58Zm6.499.815a1.895 1.895 0 1 1 0-3.79 1.895 1.895 0 0 1 0 3.79Z"/><path d="M30.632 31.579a.632.632 0 1 0 0-1.263.632.632 0 0 0 0 1.263Z"/></g><defs><clipPath id="a"><path fill="#fff" d="M0 0h36v36H0z"/></clipPath></defs></svg>