<svg width="36" height="36" fill="none" xmlns="http://www.w3.org/2000/svg"><path d="M34.96 13.514a.422.422 0 0 0-.313.506 17.135 17.135 0 0 1-16.65 21.097A16.914 16.914 0 0 1 7.68 31.652a2.832 2.832 0 1 0-.571.624 17.747 17.747 0 0 0 10.887 3.685 17.977 17.977 0 0 0 17.471-22.132.42.42 0 0 0-.509-.315ZM.882 18.003A17.115 17.115 0 0 1 26.96 3.423a2.522 2.522 0 1 0 .481-.695A17.96 17.96 0 0 0 .337 21.271a.419.419 0 0 0 .761.163.422.422 0 0 0 .069-.315 17.126 17.126 0 0 1-.284-3.116Z" fill="#fff"/><path d="M15.469 15.216v.253h5.062v-.253c-.04-3.42-5.023-3.42-5.062 0Z" fill="#fff"/><path d="M29.8 9.236c-4.748.048-9.316-2.885-11.063-4.151a1.258 1.258 0 0 0-1.473 0c-1.747 1.266-6.326 4.188-11.062 4.151a1.276 1.276 0 0 0-1.288 1.271c.003 6.495 1.302 15.784 12.516 21.46a1.258 1.258 0 0 0 1.142 0c11.213-5.676 12.512-14.965 12.515-21.46a1.28 1.28 0 0 0-1.288-1.27Zm-7.16 12.842a2.11 2.11 0 0 1-2.11 2.11h-5.06a2.11 2.11 0 0 1-2.109-2.11v-4.5a2.11 2.11 0 0 1 1.266-1.932v-.436c.05-4.514 6.699-4.514 6.75 0v.436a2.11 2.11 0 0 1 1.265 1.932v4.5Z" fill="#fff"/><path d="M18.69 19.344a.273.273 0 0 1 .057-.215.908.908 0 1 0-1.494 0 .268.268 0 0 1 .057.213l-.385 1.925a.563.563 0 0 0 .552.67h1.046a.562.562 0 0 0 .552-.672l-.384-1.921Z" fill="#fff"/></svg>