<svg width="36" height="36" fill="none" xmlns="http://www.w3.org/2000/svg"><g clip-path="url(#a)" fill="#fff"><path d="M11.069 16.038c1.648 3.639 5.178 5.222 6.93 5.222 1.151 0 3.072-.685 4.72-2.188a27.91 27.91 0 0 1-2.448.06c-.35.27-.78.416-1.223.417h-1.467c-1.106 0-2.005-.9-2.005-2.005 0-1.106.9-2.005 2.005-2.005h1.467c.52-.001 1.02.2 1.394.563l.36.002c1.894 0 3.143-.174 3.96-.384a2.191 2.191 0 0 1-.165-.834V9.802c0-.529.197-1.036.536-1.427-.18-1.41-.51-2.487-1-3.281-1.011-1.636-2.96-2.398-6.135-2.398-2.633 0-4.45.546-5.558 1.67-.858.872-1.356 2.116-1.588 3.994.347.393.547.906.547 1.442v5.084c0 .408-.114.807-.33 1.152Z"/><path d="M7.465 16.086h1.76a1.2 1.2 0 0 0 1.2-1.2V9.802c0-.443-.24-.829-.597-1.037.393-4.163 1.999-7.048 8.174-7.048 3.546 0 5.76.91 6.966 2.863.703 1.136 1.04 2.604 1.198 4.191a1.2 1.2 0 0 0-.587 1.03v5.085c0 .572.4 1.049.935 1.17-.776.507-2.382 1.026-5.708 1.026-.27 0-.55-.004-.843-.01a1.027 1.027 0 0 0-.911-.555h-1.467a1.027 1.027 0 0 0 0 2.054h1.467c.343 0 .645-.169.832-.427.309.008.611.013.903.013 3.75 0 6.133-.64 7.098-1.91.041-.054.078-.107.113-.16h.542a1.2 1.2 0 0 0 1.2-1.2V9.801a1.2 1.2 0 0 0-1.2-1.2h-.662c-.186-1.918-.6-3.55-1.448-4.925C24.9 1.203 22.144 0 18.002 0c-4.142 0-6.899 1.203-8.428 3.677-.849 1.374-1.261 3.007-1.448 4.925h-.662a1.2 1.2 0 0 0-1.2 1.2v5.084a1.2 1.2 0 0 0 1.2 1.2Zm25.048 14.95c-.4-2.48-1.22-5.677-2.869-6.813-1.123-.774-5.045-2.87-6.72-3.765l-.036-.018a.547.547 0 0 0-.596.052c-.879.69-1.84 1.154-2.859 1.38a.548.548 0 0 0-.393.341l-1.038 2.735-1.038-2.735a.548.548 0 0 0-.393-.34c-1.018-.227-1.98-.692-2.86-1.381a.547.547 0 0 0-.595-.053c-1.657.885-5.63 3.025-6.752 3.781-1.897 1.279-2.726 5.903-2.873 6.817a.548.548 0 0 0 .025.27C3.584 31.498 5.324 36 18.002 36s14.418-4.502 14.486-4.693c.03-.087.04-.18.025-.27Zm-5.903-2.849h-5.021V27.13h5.02v1.057Z"/></g><defs><clipPath id="a"><path fill="#fff" d="M0 0h36v36H0z"/></clipPath></defs></svg>