<svg version="1.2" xmlns="http://www.w3.org/2000/svg" viewBox="0 0 224 225" width="224" height="225">
	<title>Investor startups</title>
	<style>
		.s0 { fill: #6864f9 } 
		.s1 { fill: none;stroke: #ffffff;stroke-miterlimit:10;stroke-width: 5 } 
		.s2 { fill: #ffffff } 
	</style>
	<path fill-rule="evenodd" class="s0" d="m110 220c-60.3 0-109-48.7-109-109 0-60.3 48.7-109 109-109 60.3 0 109 48.7 109 109 0 60.3-48.7 109-109 109z"/>
	<path fill-rule="evenodd" class="s1" d="m88.9 69.9h41c1.7 0 3.1 1.4 3.1 3.1v12.7c0 1.7-1.4 3.1-3.1 3.1h-41c-1.7 0-3.1-1.4-3.1-3.1v-12.7c0-1.7 1.4-3.1 3.1-3.1z"/>
	<path class="s2" d="m55.5 79.7v23.8h38.5v-4.7c0-4 3.2-7.2 7.2-7.2h16.4c4 0 7.2 3.2 7.2 7.2v4.7h38.5v-23.8z"/>
	<path class="s2" d="m124.8 108.4v1.2c0 4-3.2 7.2-7.2 7.2h-16.4c-4 0-7.2-3.2-7.2-7.2v-1.2h-37.8v40.6h107.8v-40.6z"/>
	<path class="s2" d=""/>
	<path class="s2" d=""/>
</svg>