<svg version="1.2" xmlns="http://www.w3.org/2000/svg" viewBox="0 0 229 230" width="229" height="230">
	<title>Let's get acquainted</title>
	<style>
		.s0 { fill: #6864f9 } 
		.s1 { fill: #ffffff } 
	</style>
	<path fill-rule="evenodd" class="s0" d="m117 225c-60.3 0-109-48.7-109-109 0-60.3 48.7-109 109-109 60.3 0 109 48.7 109 109 0 60.3-48.7 109-109 109z"/>
	<path fill-rule="evenodd" class="s1" d="m110.4 102.4h18.4v60.6h-18.4z"/>
	<path fill-rule="evenodd" class="s1" d="m87 123.5h18.4v39.5h-18.4z"/>
	<path fill-rule="evenodd" class="s1" d="m63.9 138v21h-7.9v4h7.9 10.5 7.9v-25h-18.4z"/>
	<path fill-rule="evenodd" class="s1" d="m158.5 159v-79h11.1l-23-25-23.7 25h10.5v83h23.8 1.3 11.8v-4h-11.8z"/>
</svg>