<svg version="1.2" xmlns="http://www.w3.org/2000/svg" viewBox="0 0 134 139" width="134" height="139">
	<title>Done-Navigable interface</title>
	<style>
		.s0 { fill: #ffffff } 
	</style>
	<path class="s0" d="m116 65.8h-8.5c-0.8-4.4-2.1-8.5-4.1-12.3l7.1-6.5c1.7-1.5 1.8-4 0.3-5.6l-3.4-3.8c-1.5-1.6-4.1-1.7-5.7-0.2l-5.9 5.3c-3.2-3.3-7-6.2-11.1-8.4l2.3-8.8c0.6-2.2-0.7-4.4-2.9-4.9l-4.9-1.3c-2.1-0.6-4.3 0.7-4.9 2.8l-2 7.9q-4.1-0.8-8.3-0.8-3.3 0-6.4 0.5l-1.8-8.5c-0.5-2.2-2.7-3.6-4.8-3.1l-5 1.1c-2.2 0.5-3.5 2.6-3.1 4.8l2.1 9.5c-4.4 2.1-8.5 5-12 8.4l-4.9-4.5c-1.6-1.5-4.2-1.4-5.7 0.2l-3.4 3.8c-1.5 1.6-1.4 4.2 0.3 5.7l5.8 5.3c-2.2 4.1-3.8 8.6-4.6 13.4h-7.9c-2.2 0-4 1.8-4 4v5.1c0 2.2 1.8 4 4 4h7.6c0.6 5 2.1 9.7 4.2 14.1l-6.3 5.8c-1.7 1.5-1.8 4-0.3 5.7l3.4 3.7c1.5 1.7 4.1 1.8 5.7 0.3l5.1-4.7c3.6 3.8 7.9 6.9 12.6 9.2l-1.7 7.7c-0.4 2.1 0.9 4.3 3.1 4.8l5 1.1c2.1 0.4 4.3-0.9 4.8-3.1l1.4-6.5q3.3 0.5 6.8 0.5c2.9 0 5.7-0.3 8.5-0.8l1.8 7c0.6 2.2 2.8 3.4 4.9 2.9l4.9-1.3c2.2-0.6 3.5-2.8 2.9-4.9l-2.1-8.1c4.5-2.4 8.5-5.6 11.9-9.4l4.9 4.4c1.6 1.5 4.2 1.4 5.7-0.2l3.4-3.8c1.5-1.6 1.4-4.2-0.3-5.7l-6.4-5.8c1.9-4 3.1-8.3 3.7-12.9h8.2c2.2 0 4-1.8 4-4v-5.1c0-2.2-1.8-4-4-4zm-51.4 31.5c-13.5 0-24.5-11-24.5-24.5 0-13.5 11-24.5 24.5-24.5 13.5 0 24.5 11 24.5 24.5 0 13.5-11 24.5-24.5 24.5z"/>
	<path class="s0" d="m76.6 60.7c-1.3-1-3.2-0.7-4.2 0.6l-11.9 16.3-6-6c-1.2-1.2-3.1-1.2-4.2 0-1.2 1.1-1.2 3 0 4.2l8.3 8.3c1.2 1.2 3 1.2 4.2 0q0.1-0.1 0.2-0.2 0.4-0.3 0.8-0.7l13.4-18.3c1-1.3 0.7-3.2-0.6-4.2z"/>
	<path class="s0" d=""/>
	<path class="s0" d=""/>
</svg>