<svg version="1.2" xmlns="http://www.w3.org/2000/svg" viewBox="0 0 165 161" width="165" height="161">
	<title>Done-No platform fees</title>
	<style>
		.s0 { fill: #ffffff } 
	</style>
	<g>
		<path class="s0" d="m151 53h-5.9c-0.5-3-1.5-5.9-2.8-8.6l4.9-4.5c1.2-1.1 1.3-2.9 0.2-4l-2.4-2.7c-1-1.1-2.8-1.2-4-0.1l-4.1 3.7c-2.3-2.3-4.9-4.3-7.8-5.9l1.6-6.2c0.4-1.5-0.5-3-2-3.4l-3.4-0.9c-1.5-0.4-3.1 0.5-3.5 2l-1.4 5.5q-2.8-0.6-5.8-0.6-2.3 0-4.5 0.4l-1.3-6c-0.3-1.5-1.8-2.5-3.3-2.2l-3.5 0.8c-1.5 0.3-2.5 1.8-2.2 3.4l1.5 6.6c-3.1 1.5-6 3.5-8.4 5.9l-3.5-3.1c-1.1-1.1-2.9-1-3.9 0.1l-2.4 2.7c-1.1 1.1-1 2.9 0.1 4l0.3 0.2c6.7 0.9 13 3.2 18.5 6.6 3.2-3.6 7.8-6 13-6 9.5 0 17.2 7.7 17.2 17.2 0 6.7-3.9 12.6-9.6 15.4 1.4 4.4 2.1 9.2 2.1 14.1q0 4.2-0.7 8.2 0.7 0.2 1.3 0l3.5-0.9c1.5-0.4 2.4-2 2-3.5l-1.5-5.6c3.2-1.7 6-4 8.4-6.6l3.4 3.1c1.1 1 2.9 1 3.9-0.2l2.4-2.6c1.1-1.2 1-3-0.1-4l-4.5-4.1c1.3-2.8 2.2-5.9 2.5-9h5.8c1.5 0 2.8-1.3 2.8-2.9v-3.5c0-1.6-1.3-2.8-2.8-2.8z"/>
		<path class="s0" d="m66.2 45c-26.3 0-47.7 21.4-47.7 47.8 0 26.3 21.4 47.7 47.7 47.7 26.4 0 47.8-21.4 47.8-47.7 0-26.4-21.4-47.8-47.8-47.8zm0 88.8c-22.6 0-41-18.4-41-41 0-22.7 18.4-41 41-41 22.7 0 41 18.3 41 41 0 22.6-18.3 41-41 41z"/>
		<path class="s0" d="m65.6 86.7q-0.3 0-0.5 0.1l-9.6-14c-0.4-0.6-1.4-0.1-1.1 0.6l6.7 15.7c-0.6 0.9-0.9 1.9-0.9 3 0 3 2.4 5.4 5.4 5.4 2.9 0 5.3-2.4 5.3-5.4 0-3-2.4-5.4-5.3-5.4z"/>
	</g>
</svg>