<svg version="1.2" xmlns="http://www.w3.org/2000/svg" viewBox="0 0 235 235" width="235" height="235">
	<title>Payment Solutions</title>
	<style>
		.s0 { fill: #6864f9 } 
		.s1 { fill: #ffffff } 
	</style>
	<path fill-rule="evenodd" class="s0" d="m118 225c-60.3 0-109-48.7-109-109 0-60.3 48.7-109 109-109 60.3 0 109 48.7 109 109 0 60.3-48.7 109-109 109z"/>
	<path class="s1" d="m89.7 78.3c-22 0-39.7 17.7-39.7 39.6 0 21.9 17.8 39.7 39.7 39.7 21.9 0 39.6-17.8 39.6-39.7 0-21.9-17.7-39.6-39.6-39.6zm12 55.3h-24.1v-7.3h8.4v-16.8h-7.2v-8.4h16.9v25.2h6z"/>
	<g>
		<path class="s1" d="m91.5 67.9q0.3 0 0.6-0.1h-0.6z"/>
		<path class="s1" d="m92.1 67.9c13 0 24.9 5 33.8 13.2h47.3v-13.2z"/>
	</g>
	<path class="s1" d="m132.3 88.3c2.9 4 5.3 8.4 6.9 13.2h25.6v-13.2z"/>
	<path class="s1" d="m140.9 107.5q1 5 1 10.2 0 1.5-0.1 3h36.2v-13.2z"/>
	<path class="s1" d="m140.6 129.1c-1.1 4.7-2.8 9.2-5.2 13.3h35.4v-13.3z"/>
	<path class="s1" d="m129.4 150.8c-5.1 5.7-11.5 10.3-18.7 13.2h67.3v-13.2z"/>
</svg>