<svg version="1.2" xmlns="http://www.w3.org/2000/svg" viewBox="0 0 228 234" width="228" height="234">
	<title>Profitable deals</title>
	<style>
		.s0 { fill: #6864f9 } 
		.s1 { fill: #ffffff } 
	</style>
	<path fill-rule="evenodd" class="s0" d="m117 224c-60.3 0-109-48.7-109-109 0-60.3 48.7-109 109-109 60.3 0 109 48.7 109 109 0 60.3-48.7 109-109 109z"/>
	<path class="s1" d="m94.3 53c-21.2 0-38.3 17.1-38.3 38.3 0 21.2 17.1 38.3 38.3 38.3 21.2 0 38.3-17.1 38.3-38.3 0-21.2-17.1-38.3-38.3-38.3zm0 68.3c-16.5 0-30-13.4-30-30 0-16.5 13.5-30 30-30 16.6 0 30 13.5 30 30 0 16.6-13.4 30-30 30z"/>
	<path class="s1" d="m141 101.8q-2.6 0-5 0.3c-3.3 15.5-16 27.6-31.9 29.9q-0.7 3.6-0.7 7.4c0 20.8 16.8 37.6 37.6 37.6 20.8 0 37.6-16.8 37.6-37.6 0-20.8-16.8-37.6-37.6-37.6z"/>
	<path class="s1" d="m94.4 109q-3.7 0-7.2-1.1-3.6-1.1-6-3.2l3.4-5.2q1.1 1.1 2.7 2 1.7 0.8 3.5 1.2 1.9 0.5 3.6 0.5 3.1 0 5-1.2 1.8-1.1 1.8-3.2 0-1.9-1.3-3.1-1.4-1.2-4.9-2l-3.5-0.7q-5-1.5-7.3-4-2.3-2.5-2.3-6.2 0-3.2 1.6-5.6 1.7-2.4 4.5-3.7 2.9-1.4 6.5-1.4 3.7 0 6.9 1.1 3.1 1.1 5 3l-3.3 5q-1.5-1.5-3.8-2.4-2.3-0.9-4.8-0.9-2 0-3.4 0.6-1.5 0.5-2.2 1.5-0.8 1-0.8 2.4 0 1.9 1.3 3 1.3 1.1 4.9 2l3.7 0.6q4.7 1.3 7.1 3.7 2.4 2.4 2.4 6.3 0 3.3-1.6 5.8-1.5 2.5-4.5 3.8-2.9 1.4-7 1.4zm-2.5 3.3v-43.6h5.6v43.6z"/>
</svg>