<svg width="36" height="36" fill="none" xmlns="http://www.w3.org/2000/svg"><path d="M33.685.858a.991.991 0 0 0-1.84 0 4.62 4.62 0 0 1-1.7 2.284.991.991 0 0 0 0 1.591 4.62 4.62 0 0 1 1.7 2.284.992.992 0 0 0 1.84 0 4.62 4.62 0 0 1 1.702-2.284.991.991 0 0 0 0-1.591A4.62 4.62 0 0 1 33.685.858Zm1.471 27.548h-.843v-2.531a.846.846 0 0 0-.844-.844h-4.34a8.438 8.438 0 1 0-7.352 0h-4.34a.846.846 0 0 0-.843.844v2.531a.846.846 0 0 0 .843.844h.844v2.531h-.843a.846.846 0 0 0-.844.844v2.531a.846.846 0 0 0 .843.844H33.47a.846.846 0 0 0 .843-.844v-2.531h.844A.846.846 0 0 0 36 31.78v-2.53a.846.846 0 0 0-.844-.844ZM20.11 17.437a5.344 5.344 0 1 1 10.688 0 5.344 5.344 0 0 1-10.688 0Zm.703 17.72h-.843v-2.532h.843v2.531Zm0-6.75h-.843v-2.532h.843v2.531ZM22.5 31.78h-.844v-2.53h.844v2.531Zm1.688 3.375h-.844v-2.531h.843v2.531Zm0-6.75h-.844v-2.531h.843v2.531Zm1.687 3.375h-.844v-2.53h.844v2.531Zm1.688 3.375h-.844v-2.531h.843v2.531Zm0-6.75h-.844v-2.531h.843v2.531Zm1.687 3.375h-.844v-2.53h.844v2.531Zm1.688 3.375h-.844v-2.531h.843v2.531Zm0-6.75h-.844v-2.531h.843v2.531Zm1.687 3.375h-.844v-2.53h.844v2.531Z" fill="#fff"/><path d="M25.877 20.531v-.478a1.526 1.526 0 0 0-.2-3.038h-.444a.684.684 0 0 1 0-1.366h.664a.462.462 0 0 1 .461.464.422.422 0 1 0 .844 0 1.306 1.306 0 0 0-1.325-1.308v-.461a.422.422 0 1 0-.844 0v.478a1.525 1.525 0 0 0 .2 3.037h.444a.683.683 0 1 1 0 1.367h-.663a.464.464 0 0 1-.462-.464.422.422 0 1 0-.843 0 1.306 1.306 0 0 0 1.324 1.308v.461a.422.422 0 0 0 .844 0ZM2.573 32.583C5.228 35.384 9.537 35.975 15.187 36h.185a.423.423 0 0 0 .414-.506 1.7 1.7 0 0 1-.034-.338v-2.531a1.694 1.694 0 0 1 1.333-1.65.479.479 0 0 0 0-.919 1.694 1.694 0 0 1-1.333-1.65v-2.531a1.687 1.687 0 0 1 1.688-1.688s.502-.003.669 0a.427.427 0 0 0 .32-.697 9.084 9.084 0 0 1-2.255-6.053 9.333 9.333 0 0 1 4.74-8.09.749.749 0 0 0 .177-.132 1.822 1.822 0 0 0 .283-1.908 1.876 1.876 0 0 0-.998-1.004c.531-1.077 1.128-2.326 1.378-2.97a2.147 2.147 0 0 0-.577-2.436 2.058 2.058 0 0 0-2.463-.163 2.52 2.52 0 0 1-1.19.425c-.58 0-.703-.107-.827-.338-.453-.832-2.562-.832-3.015 0-.124.228-.245.338-.827.338a2.52 2.52 0 0 1-1.19-.425 2.056 2.056 0 0 0-2.46.16 2.144 2.144 0 0 0-.577 2.436c.217.57.712 1.62 1.187 2.604L7.062 4.686A1.515 1.515 0 1 0 5.81 7.445l1.707.776-2.843 1.03a1.606 1.606 0 1 0 1.09 3.02l.35-.127C3.372 15.204.37 19.57.143 24.18c-.183 3.738.613 6.486 2.43 8.404Zm7.211-24.95a1.051 1.051 0 0 1 1.14-.636c2.827.44 5.705.44 8.532 0a1.056 1.056 0 0 1 1.06 1.604c-.267.151-.537.32-.801.503a21.75 21.75 0 0 1-9.186-.028 1.065 1.065 0 0 1-.745-1.443Zm-3.625-.956a.672.672 0 1 1 .554-1.224L9.43 6.685a1.88 1.88 0 0 0-.546 1.04l-.23.082-2.495-1.13Zm-.68 4.8a.762.762 0 0 1-.518-1.434l3.982-1.442c.05.172.128.336.228.486a40.262 40.262 0 0 0-1.78 1.696l-1.913.695Z" fill="#fff"/></svg>