<svg version="1.2" xmlns="http://www.w3.org/2000/svg" viewBox="0 0 153 154" width="153" height="154">
	<title>support</title>
	<style>
		.s0 { fill: #ffffff } 
	</style>
	<path class="s0" d="m129.2 75.6c0-18.5-25.8-33.6-57.6-33.6-31.8 0-57.6 15.1-57.6 33.6 0 18.6 25.8 33.7 57.6 33.7 10.2 0 19.8-1.6 28.1-4.3l19.2 10-5.4-16.3c9.7-6 15.7-14.1 15.7-23.1zm-83.8 7.5c-4.1 0-7.4-3.4-7.4-7.5 0-4 3.3-7.4 7.4-7.4 4.1 0 7.4 3.4 7.4 7.4 0 4.1-3.3 7.5-7.4 7.5zm23.9 0c-4.1 0-7.4-3.4-7.4-7.5 0-4 3.3-7.4 7.4-7.4 4.1 0 7.4 3.4 7.4 7.4 0 4.1-3.3 7.5-7.4 7.5zm17.7-7.5c0-4 3.3-7.4 7.4-7.4 4.1 0 7.4 3.4 7.4 7.4 0 4.1-3.3 7.5-7.4 7.5-4.1 0-7.4-3.4-7.4-7.5z"/>
</svg>