<svg version="1.2" xmlns="http://www.w3.org/2000/svg" viewBox="0 0 154 102" width="154" height="102">
	<title>3</title>
	<defs>
		<clipPath clipPathUnits="userSpaceOnUse" id="cp1">
			<path d="m-95.71 0h243.42c2.92 0 5.29 2.37 5.29 5.29v162.42c0 2.92-2.37 5.29-5.29 5.29h-243.42c-2.92 0-5.29-2.37-5.29-5.29v-162.42c0-2.92 2.37-5.29 5.29-5.29z"/>
		</clipPath>
	</defs>
	<style>
		.s0 { fill: none;stroke: #e5e5e5;stroke-miterlimit:10;stroke-width: 2 } 
	</style>
	<g id="Clip-Path" clip-path="url(#cp1)">
		<g>
			<path class="s0" d="m23-5l-19.7 57.6c-2.6 7.5 3 15.4 11 15.4h81c4 0 7.6-2.5 9-6.3l24.7-69.7"/>
			<path class="s0" d="m156 5l-26.7 77.6c-2.6 7.5 3 15.4 11 15.4h81c4 0 7.6-2.5 9-6.3l24.7-69.7"/>
		</g>
	</g>
</svg>